<?xml version="1.0" encoding="UTF-8" standalone="no"?>
<!-- Created with Inkscape (http://www.inkscape.org/) -->

<svg
   xmlns:dc="http://purl.org/dc/elements/1.1/"
   xmlns:cc="http://creativecommons.org/ns#"
   xmlns:rdf="http://www.w3.org/1999/02/22-rdf-syntax-ns#"
   xmlns:svg="http://www.w3.org/2000/svg"
   xmlns="http://www.w3.org/2000/svg"
   xmlns:sodipodi="http://sodipodi.sourceforge.net/DTD/sodipodi-0.dtd"
   xmlns:inkscape="http://www.inkscape.org/namespaces/inkscape"
   width="50.071018mm"
   height="13.656358mm"
   viewBox="0 0 50.071018 13.656358"
   version="1.1"
   id="svg8"
   inkscape:version="0.92.1 r15371"
   sodipodi:docname="logo.svg">
  <defs
     id="defs2" />
  <sodipodi:namedview
     id="base"
     pagecolor="#ffffff"
     bordercolor="#666666"
     borderopacity="1.0"
     inkscape:pageopacity="0.0"
     inkscape:pageshadow="2"
     inkscape:zoom="5.6"
     inkscape:cx="74.181436"
     inkscape:cy="37.620768"
     inkscape:document-units="mm"
     inkscape:current-layer="layer1"
     showgrid="false"
     inkscape:lockguides="false"
     inkscape:snap-midpoints="true"
     inkscape:object-paths="false"
     inkscape:snap-intersection-paths="true"
     inkscape:snap-bbox="false"
     inkscape:bbox-paths="true"
     inkscape:snap-bbox-edge-midpoints="true"
     inkscape:bbox-nodes="true"
     inkscape:snap-bbox-midpoints="true"
     inkscape:snap-object-midpoints="true"
     inkscape:snap-center="true"
     inkscape:snap-text-baseline="false"
     inkscape:window-width="1920"
     inkscape:window-height="1000"
     inkscape:window-x="0"
     inkscape:window-y="0"
     inkscape:window-maximized="1"
     fit-margin-top="0"
     fit-margin-left="0"
     fit-margin-right="0"
     fit-margin-bottom="0" />
  <metadata
     id="metadata5">
    <rdf:RDF>
      <cc:Work
         rdf:about="">
        <dc:format>image/svg+xml</dc:format>
        <dc:type
           rdf:resource="http://purl.org/dc/dcmitype/StillImage" />
        <dc:title></dc:title>
      </cc:Work>
    </rdf:RDF>
  </metadata>
  <g
     inkscape:label="Layer 1"
     inkscape:groupmode="layer"
     id="layer1"
     style="opacity:0.95999995"
     transform="translate(-42.009894,-77.274087)">
    <ellipse
       style="fill:#fff100;fill-opacity:1;stroke:none;stroke-width:2;stroke-linecap:butt;stroke-linejoin:bevel;stroke-miterlimit:4;stroke-dasharray:none;stroke-dashoffset:0;stroke-opacity:1;paint-order:stroke markers fill"
       id="path4521"
       cx="71.07724"
       cy="84.093094"
       rx="2.9115977"
       ry="3.4372211" />
    <g
       aria-label="Lyslogg"
       style="font-style:normal;font-weight:normal;font-size:14.11111069px;line-height:1.25;font-family:sans-serif;letter-spacing:0px;word-spacing:0px;fill:#000000;fill-opacity:1;stroke:none;stroke-width:0.26458332"
       id="text4487">
      <path
         d="m 42.009894,77.708169 h 1.391819 v 9.115723 h 5.009168 v 1.171332 h -6.400987 z"
         style="font-style:normal;font-variant:normal;font-weight:normal;font-stretch:normal;font-family:'DejaVu Sans';-inkscape-font-specification:'DejaVu Sans';stroke-width:0.26458332"
         id="path4504"
         inkscape:connector-curvature="0" />
      <path
         d="m 51.731953,88.711804 q -0.537435,1.378038 -1.047309,1.79834 -0.509874,0.420301 -1.364257,0.420301 h -1.012859 v -1.061089 h 0.744141 q 0.523655,0 0.813043,-0.248047 0.289388,-0.248047 0.640787,-1.171332 l 0.227377,-0.578776 -3.121257,-7.592991 h 1.343587 l 2.411567,6.035807 2.411567,-6.035807 h 1.343587 z"
         style="font-style:normal;font-variant:normal;font-weight:normal;font-stretch:normal;font-family:'DejaVu Sans';-inkscape-font-specification:'DejaVu Sans';stroke-width:0.26458332"
         id="path4506"
         inkscape:connector-curvature="0" />
      <path
         d="m 61.791632,80.505587 v 1.198893 q -0.537435,-0.275608 -1.116211,-0.413412 -0.578776,-0.137803 -1.198893,-0.137803 -0.943957,0 -1.41938,0.289388 -0.468533,0.289388 -0.468533,0.868164 0,0.440972 0.33762,0.695909 0.337619,0.248047 1.357367,0.475423 l 0.434082,0.09646 q 1.350478,0.289388 1.915473,0.819932 0.571886,0.523655 0.571886,1.467611 0,1.07487 -0.854383,1.701877 -0.847494,0.627008 -2.335775,0.627008 -0.620117,0 -1.295356,-0.124024 Q 57.05118,87.95388 56.30704,87.712723 V 86.40359 q 0.702799,0.36518 1.384928,0.551215 0.682129,0.179145 1.350478,0.179145 0.895724,0 1.378038,-0.303168 0.482313,-0.310059 0.482313,-0.868164 0,-0.516765 -0.3514,-0.792372 -0.344509,-0.275608 -1.522732,-0.530545 l -0.440972,-0.103353 q -1.178223,-0.248047 -1.701877,-0.757921 -0.523655,-0.516764 -0.523655,-1.412489 0,-1.08865 0.771702,-1.681206 0.771701,-0.592557 2.19108,-0.592557 0.7028,0 1.322917,0.103353 0.620117,0.103353 1.143772,0.310059 z"
         style="font-style:normal;font-variant:normal;font-weight:normal;font-stretch:normal;font-family:'DejaVu Sans';-inkscape-font-specification:'DejaVu Sans';stroke-width:0.26458332"
         id="path4508"
         inkscape:connector-curvature="0" />
      <path
         d="m 64.223869,77.274087 h 1.267795 v 10.721137 h -1.267795 z"
         style="font-style:normal;font-variant:normal;font-weight:normal;font-stretch:normal;font-family:'DejaVu Sans';-inkscape-font-specification:'DejaVu Sans';stroke-width:0.26458332"
         id="path4510"
         inkscape:connector-curvature="0" />
      <path
         d="m 71.134731,81.167045 q -1.019749,0 -1.612305,0.799262 -0.592557,0.792372 -0.592557,2.1773 0,1.384929 0.585667,2.184191 0.592556,0.792372 1.619195,0.792372 1.012858,0 1.605414,-0.799262 0.592556,-0.799262 0.592556,-2.177301 0,-1.371148 -0.592556,-2.17041 -0.592556,-0.806152 -1.605414,-0.806152 z m 0,-1.07487 q 1.653645,0 2.597601,1.07487 0.943957,1.07487 0.943957,2.976562 0,1.894803 -0.943957,2.976563 -0.943956,1.07487 -2.597601,1.07487 -1.660536,0 -2.604493,-1.07487 -0.937066,-1.08176 -0.937066,-2.976563 0,-1.901692 0.937066,-2.976562 0.943957,-1.07487 2.604493,-1.07487 z"
         style="font-style:normal;font-variant:normal;font-weight:normal;font-stretch:normal;font-family:'DejaVu Sans';-inkscape-font-specification:'DejaVu Sans';stroke-width:0.26458332"
         id="path4512"
         inkscape:connector-curvature="0" />
      <path
         d="m 81.855868,84.047145 q 0,-1.378038 -0.571886,-2.135959 -0.564996,-0.757921 -1.591634,-0.757921 -1.019748,0 -1.591634,0.757921 -0.564996,0.757921 -0.564996,2.135959 0,1.371148 0.564996,2.129069 0.571886,0.757921 1.591634,0.757921 1.026638,0 1.591634,-0.757921 0.571886,-0.757921 0.571886,-2.129069 z m 1.267795,2.990342 q 0,1.970595 -0.875054,2.928332 -0.875055,0.964626 -2.680285,0.964626 -0.668348,0 -1.260904,-0.103353 -0.592557,-0.09646 -1.150662,-0.303168 V 89.29058 q 0.558105,0.303168 1.10243,0.447862 0.544325,0.144694 1.109321,0.144694 1.247124,0 1.867242,-0.654568 0.620117,-0.647678 0.620117,-1.963704 v -0.627008 q -0.392741,0.682129 -1.005968,1.019749 -0.613227,0.337619 -1.467611,0.337619 -1.419379,0 -2.287543,-1.08176 -0.868164,-1.08176 -0.868164,-2.866319 0,-1.79145 0.868164,-2.87321 0.868164,-1.08176 2.287543,-1.08176 0.854384,0 1.467611,0.33762 0.613227,0.337619 1.005968,1.019748 V 80.27821 h 1.267795 z"
         style="font-style:normal;font-variant:normal;font-weight:normal;font-stretch:normal;font-family:'DejaVu Sans';-inkscape-font-specification:'DejaVu Sans';stroke-width:0.26458332"
         id="path4514"
         inkscape:connector-curvature="0" />
      <path
         d="m 90.813117,84.047145 q 0,-1.378038 -0.571886,-2.135959 -0.564996,-0.757921 -1.591634,-0.757921 -1.019749,0 -1.591634,0.757921 -0.564996,0.757921 -0.564996,2.135959 0,1.371148 0.564996,2.129069 0.571885,0.757921 1.591634,0.757921 1.026638,0 1.591634,-0.757921 0.571886,-0.757921 0.571886,-2.129069 z m 1.267795,2.990342 q 0,1.970595 -0.875055,2.928332 -0.875054,0.964626 -2.680284,0.964626 -0.668348,0 -1.260905,-0.103353 -0.592556,-0.09646 -1.150662,-0.303168 V 89.29058 q 0.558106,0.303168 1.102431,0.447862 0.544325,0.144694 1.109321,0.144694 1.247124,0 1.867241,-0.654568 0.620118,-0.647678 0.620118,-1.963704 v -0.627008 q -0.392741,0.682129 -1.005968,1.019749 -0.613227,0.337619 -1.467611,0.337619 -1.419379,0 -2.287543,-1.08176 -0.868164,-1.08176 -0.868164,-2.866319 0,-1.79145 0.868164,-2.87321 0.868164,-1.08176 2.287543,-1.08176 0.854384,0 1.467611,0.33762 0.613227,0.337619 1.005968,1.019748 V 80.27821 h 1.267795 z"
         style="font-style:normal;font-variant:normal;font-weight:normal;font-stretch:normal;font-family:'DejaVu Sans';-inkscape-font-specification:'DejaVu Sans';stroke-width:0.26458332"
         id="path4516"
         inkscape:connector-curvature="0" />
    </g>
    <path
       style="fill:none;stroke:#ff8000;stroke-width:0.74939388;stroke-linecap:butt;stroke-linejoin:miter;stroke-miterlimit:4;stroke-dasharray:none;stroke-opacity:1"
       d="M 71.134731,79.997681 V 78.612483"
       id="path4523"
       inkscape:connector-curvature="0" />
    <path
       style="fill:none;stroke:#ff8000;stroke-width:0.74939388;stroke-linecap:butt;stroke-linejoin:miter;stroke-miterlimit:4;stroke-dasharray:none;stroke-opacity:1"
       d="m 66.140056,84.131498 h 1.385198"
       id="path4523-9"
       inkscape:connector-curvature="0" />
    <path
       style="fill:none;stroke:#ff8000;stroke-width:0.74939388;stroke-linecap:butt;stroke-linejoin:miter;stroke-miterlimit:4;stroke-dasharray:none;stroke-opacity:1"
       d="m 66.415461,81.949983 1.279756,0.530092"
       id="path4523-9-4"
       inkscape:connector-curvature="0" />
    <path
       style="fill:none;stroke:#ff8000;stroke-width:0.74939388;stroke-linecap:butt;stroke-linejoin:miter;stroke-miterlimit:4;stroke-dasharray:none;stroke-opacity:1"
       d="m 67.475103,80.130701 0.979482,0.979482"
       id="path4523-9-4-9"
       inkscape:connector-curvature="0" />
    <path
       style="fill:none;stroke:#ff8000;stroke-width:0.74939388;stroke-linecap:butt;stroke-linejoin:miter;stroke-miterlimit:4;stroke-dasharray:none;stroke-opacity:1"
       d="m 69.108956,79.014109 0.530092,1.279754"
       id="path4523-9-4-9-6"
       inkscape:connector-curvature="0" />
    <path
       style="fill:none;stroke:#ff8000;stroke-width:0.74939388;stroke-linecap:butt;stroke-linejoin:miter;stroke-miterlimit:4;stroke-dasharray:none;stroke-opacity:1"
       d="M 76.129406,84.131499 H 74.744208"
       id="path4523-9-1"
       inkscape:connector-curvature="0" />
    <path
       style="fill:none;stroke:#ff8000;stroke-width:0.74939388;stroke-linecap:butt;stroke-linejoin:miter;stroke-miterlimit:4;stroke-dasharray:none;stroke-opacity:1"
       d="m 75.854001,81.949983 -1.279756,0.530092"
       id="path4523-9-4-98"
       inkscape:connector-curvature="0" />
    <path
       style="fill:none;stroke:#ff8000;stroke-width:0.74939388;stroke-linecap:butt;stroke-linejoin:miter;stroke-miterlimit:4;stroke-dasharray:none;stroke-opacity:1"
       d="m 74.794359,80.130701 -0.979482,0.979482"
       id="path4523-9-4-9-0"
       inkscape:connector-curvature="0" />
    <path
       style="fill:none;stroke:#ff8000;stroke-width:0.74939388;stroke-linecap:butt;stroke-linejoin:miter;stroke-miterlimit:4;stroke-dasharray:none;stroke-opacity:1"
       d="m 73.160506,79.014109 -0.530092,1.279754"
       id="path4523-9-4-9-6-4"
       inkscape:connector-curvature="0" />
    <path
       style="fill:none;stroke:#ff8000;stroke-width:0.74939388;stroke-linecap:butt;stroke-linejoin:miter;stroke-miterlimit:4;stroke-dasharray:none;stroke-opacity:1"
       d="m 71.134731,88.265315 v 1.385198"
       id="path4523-90"
       inkscape:connector-curvature="0" />
    <path
       style="fill:none;stroke:#ff8000;stroke-width:0.74939388;stroke-linecap:butt;stroke-linejoin:miter;stroke-miterlimit:4;stroke-dasharray:none;stroke-opacity:1"
       d="m 66.415461,86.313013 1.279756,-0.530092"
       id="path4523-9-4-5"
       inkscape:connector-curvature="0" />
    <path
       style="fill:none;stroke:#ff8000;stroke-width:0.74939388;stroke-linecap:butt;stroke-linejoin:miter;stroke-miterlimit:4;stroke-dasharray:none;stroke-opacity:1"
       d="m 67.475103,88.132295 0.979482,-0.979482"
       id="path4523-9-4-9-01"
       inkscape:connector-curvature="0" />
    <path
       style="fill:none;stroke:#ff8000;stroke-width:0.74939388;stroke-linecap:butt;stroke-linejoin:miter;stroke-miterlimit:4;stroke-dasharray:none;stroke-opacity:1"
       d="m 69.108956,89.248887 0.530092,-1.279754"
       id="path4523-9-4-9-6-6"
       inkscape:connector-curvature="0" />
    <path
       style="fill:none;stroke:#ff8000;stroke-width:0.74939388;stroke-linecap:butt;stroke-linejoin:miter;stroke-miterlimit:4;stroke-dasharray:none;stroke-opacity:1"
       d="M 75.854001,86.313013 74.574245,85.782921"
       id="path4523-9-4-98-2"
       inkscape:connector-curvature="0" />
    <path
       style="fill:none;stroke:#ff8000;stroke-width:0.74939388;stroke-linecap:butt;stroke-linejoin:miter;stroke-miterlimit:4;stroke-dasharray:none;stroke-opacity:1"
       d="M 74.794359,88.132295 73.814877,87.152813"
       id="path4523-9-4-9-0-8"
       inkscape:connector-curvature="0" />
    <path
       style="fill:none;stroke:#ff8000;stroke-width:0.74939388;stroke-linecap:butt;stroke-linejoin:miter;stroke-miterlimit:4;stroke-dasharray:none;stroke-opacity:1"
       d="M 73.160506,89.248887 72.630414,87.969133"
       id="path4523-9-4-9-6-4-8"
       inkscape:connector-curvature="0" />
    <path
       style="fill:#fff100;fill-opacity:1;stroke:none;stroke-width:0.81350666;stroke-linecap:butt;stroke-linejoin:bevel;stroke-miterlimit:4;stroke-dasharray:none;stroke-dashoffset:0;stroke-opacity:1;paint-order:stroke markers fill"
       d="m 48.058467,78.033799 h 6.616612 l -3.308306,8.280218 z"
       id="rect4926"
       inkscape:connector-curvature="0"
       sodipodi:nodetypes="cccc" />
  </g>
</svg>
